<svg viewBox="0 0 800 400" xmlns="http://www.w3.org/2000/svg" font-family="-apple-system,BlinkMacSystemFont,'Segoe UI',sans-serif">
  <rect width="800" height="400" fill="#F3F4F6" rx="12"/>
  <!-- Browser chrome -->
  <rect x="0" y="0" width="800" height="36" fill="#E5E7EB" rx="12"/>
  <rect x="0" y="24" width="800" height="12" fill="#E5E7EB"/>
  <circle cx="22" cy="18" r="6" fill="#EF4444"/><circle cx="42" cy="18" r="6" fill="#F59E0B"/><circle cx="62" cy="18" r="6" fill="#10B981"/>
  <rect x="130" y="7" width="440" height="20" fill="white" rx="10"/>
  <text x="350" y="21" font-size="10" fill="#6B7280">script.google.com</text>
  <!-- Apps Script editor -->
  <rect x="0" y="36" width="800" height="364" fill="#fff"/>
  <!-- Header bar -->
  <rect x="0" y="36" width="800" height="42" fill="#F6F8FC" stroke="#E5E7EB" stroke-width="0.5"/>
  <text x="30" y="52" font-size="12" font-weight="700" fill="#4285F4">Apps Script</text>
  <text x="200" y="52" font-size="11" fill="#374151">내 프로젝트 › 자동 이메일 발송기</text>
  <rect x="600" y="41" width="80" height="24" fill="#4285F4" rx="4"/>
  <text x="640" y="57" text-anchor="middle" font-size="11" fill="white">▶ 실행</text>
  <rect x="690" y="41" width="90" height="24" fill="#34A853" rx="4"/>
  <text x="735" y="57" text-anchor="middle" font-size="11" fill="white">💾 저장</text>
  <!-- Toolbar row -->
  <rect x="0" y="78" width="800" height="30" fill="#F1F3F4"/>
  <text x="20" y="97" font-size="10" fill="#5F6368">파일  수정  보기  실행  도움말</text>
  <!-- Left file panel -->
  <rect x="0" y="108" width="190" height="292" fill="#F8F9FA" stroke="#E5E7EB" stroke-width="0.5"/>
  <text x="15" y="130" font-size="10" fill="#374151" font-weight="600">파일</text>
  <rect x="10" y="138" width="170" height="26" fill="#E8F0FE" rx="4"/>
  <text x="25" y="154" font-size="10" fill="#1A73E8">📄 Code.gs</text>
  <rect x="10" y="170" width="170" height="26" fill="white" rx="4"/>
  <text x="25" y="186" font-size="10" fill="#374151">📄 Utils.gs</text>
  <!-- Code editor area -->
  <rect x="190" y="108" width="610" height="292" fill="#1e1e1e"/>
  <!-- Line numbers -->
  <rect x="190" y="108" width="35" height="292" fill="#252526"/>
  <!-- Code -->
  <text x="200" y="130" font-size="9" fill="#858585" font-family="monospace">1</text>
  <text x="235" y="130" font-size="9" fill="#569CD6" font-family="monospace">function</text>
  <text x="291" y="130" font-size="9" fill="#DCDCAA" font-family="monospace"> sendWeeklyReport</text>
  <text x="414" y="130" font-size="9" fill="#D4D4D4" font-family="monospace">() &#123;</text>
  <text x="200" y="148" font-size="9" fill="#858585" font-family="monospace">2</text>
  <text x="200" y="166" font-size="9" fill="#858585" font-family="monospace">3</text>
  <text x="247" y="166" font-size="9" fill="#4EC9B0" font-family="monospace">  const</text>
  <text x="285" y="166" font-size="9" fill="#9CDCFE" font-family="monospace"> sheet</text>
  <text x="316" y="166" font-size="9" fill="#D4D4D4" font-family="monospace"> =</text>
  <text x="325" y="166" font-size="9" fill="#4EC9B0" font-family="monospace"> SpreadsheetApp</text>
  <text x="200" y="184" font-size="9" fill="#858585" font-family="monospace">4</text>
  <text x="247" y="184" font-size="9" fill="#D4D4D4" font-family="monospace">    .getActiveSpreadsheet()</text>
  <text x="200" y="202" font-size="9" fill="#858585" font-family="monospace">5</text>
  <text x="247" y="202" font-size="9" fill="#D4D4D4" font-family="monospace">    .getSheetByName(</text>
  <text x="380" y="202" font-size="9" fill="#CE9178" font-family="monospace">'주간보고'</text>
  <text x="420" y="202" font-size="9" fill="#D4D4D4" font-family="monospace">);</text>
  <text x="200" y="220" font-size="9" fill="#858585" font-family="monospace">6</text>
  <text x="200" y="238" font-size="9" fill="#858585" font-family="monospace">7</text>
  <text x="247" y="238" font-size="9" fill="#6A9955" font-family="monospace">  // 데이터 읽기 (2행부터)</text>
  <text x="200" y="256" font-size="9" fill="#858585" font-family="monospace">8</text>
  <text x="247" y="256" font-size="9" fill="#4EC9B0" font-family="monospace">  const</text>
  <text x="285" y="256" font-size="9" fill="#9CDCFE" font-family="monospace"> data</text>
  <text x="308" y="256" font-size="9" fill="#D4D4D4" font-family="monospace"> = sheet.getDataRange().getValues();</text>
  <text x="200" y="274" font-size="9" fill="#858585" font-family="monospace">9</text>
  <text x="200" y="292" font-size="9" fill="#858585" font-family="monospace">10</text>
  <text x="247" y="292" font-size="9" fill="#C586C0" font-family="monospace">  for</text>
  <text x="268" y="292" font-size="9" fill="#D4D4D4" font-family="monospace"> (</text>
  <text x="277" y="292" font-size="9" fill="#4EC9B0" font-family="monospace">let</text>
  <text x="296" y="292" font-size="9" fill="#9CDCFE" font-family="monospace"> i</text>
  <text x="305" y="292" font-size="9" fill="#D4D4D4" font-family="monospace"> =</text>
  <text x="314" y="292" font-size="9" fill="#B5CEA8" font-family="monospace"> 1</text>
  <text x="322" y="292" font-size="9" fill="#D4D4D4" font-family="monospace">; i &lt; data.length; i++) &#123;</text>
  <text x="200" y="310" font-size="9" fill="#858585" font-family="monospace">11</text>
  <text x="247" y="310" font-size="9" fill="#4EC9B0" font-family="monospace">    const</text>
  <text x="292" y="310" font-size="9" fill="#9CDCFE" font-family="monospace"> email</text>
  <text x="321" y="310" font-size="9" fill="#D4D4D4" font-family="monospace"> = data[i][</text>
  <text x="374" y="310" font-size="9" fill="#B5CEA8" font-family="monospace">2</text>
  <text x="380" y="310" font-size="9" fill="#D4D4D4" font-family="monospace">];</text>
  <text x="200" y="328" font-size="9" fill="#858585" font-family="monospace">12</text>
  <text x="247" y="328" font-size="9" fill="#DCDCAA" font-family="monospace">    GmailApp</text>
  <text x="313" y="328" font-size="9" fill="#D4D4D4" font-family="monospace">.sendEmail(email, ...</text>
  <text x="200" y="346" font-size="9" fill="#858585" font-family="monospace">13</text>
  <text x="247" y="346" font-size="9" fill="#D4D4D4" font-family="monospace">  &#125;</text>
  <text x="200" y="364" font-size="9" fill="#858585" font-family="monospace">14</text>
  <text x="235" y="364" font-size="9" fill="#D4D4D4" font-family="monospace">&#125;</text>
  <!-- Cursor -->
  <rect x="253" y="354" width="5" height="11" fill="#AEAFAD" opacity="0.9"/>
</svg>
