<svg viewBox="0 0 800 400" xmlns="http://www.w3.org/2000/svg" font-family="-apple-system,BlinkMacSystemFont,'Segoe UI',sans-serif">
  <rect width="800" height="400" fill="#1C1B1F" rx="12"/>
  <!-- Header -->
  <rect x="0" y="0" width="800" height="50" fill="#2D2C31" rx="12"/>
  <rect x="0" y="38" width="800" height="12" fill="#2D2C31"/>
  <text x="30" y="30" font-size="14" fill="white" font-weight="700">📓 NotebookLM</text>
  <text x="400" y="30" text-anchor="middle" font-size="12" fill="#9CA3AF">시장조사_보고서.pdf</text>
  <!-- Audio overview panel -->
  <rect x="50" y="70" width="700" height="290" fill="#2D2C31" rx="12"/>
  <text x="400" y="105" text-anchor="middle" font-size="16" fill="white" font-weight="700">🎙️ Audio Overview</text>
  <text x="400" y="125" text-anchor="middle" font-size="11" fill="#9CA3AF">AI가 문서를 팟캐스트로 변환해드립니다</text>
  <!-- Two hosts -->
  <circle cx="250" cy="195" r="50" fill="#3C3B41" stroke="#5E5CE6" stroke-width="2"/>
  <text x="250" y="200" text-anchor="middle" font-size="35">👩</text>
  <text x="250" y="235" text-anchor="middle" font-size="11" fill="#E5E7EB">진행자 A</text>
  <circle cx="550" cy="195" r="50" fill="#3C3B41" stroke="#5E5CE6" stroke-width="2"/>
  <text x="550" y="200" text-anchor="middle" font-size="35">👨</text>
  <text x="550" y="235" text-anchor="middle" font-size="11" fill="#E5E7EB">진행자 B</text>
  <!-- Speech bubbles -->
  <rect x="305" y="155" width="190" height="50" fill="#5E5CE6" rx="10"/>
  <polygon points="305,175 290,185 305,185" fill="#5E5CE6"/>
  <text x="400" y="175" text-anchor="middle" font-size="9" fill="white">"이번 보고서에서 가장</text>
  <text x="400" y="190" text-anchor="middle" font-size="9" fill="white">주목할 내용은 뭘까요?"</text>
  <!-- Audio player -->
  <rect x="80" y="260" width="640" height="70" fill="#1C1B1F" rx="10"/>
  <!-- Waveform visualization -->
  <g fill="#5E5CE6" opacity="0.7">
    <rect x="120" y="280" width="4" height="15" rx="2"/>
    <rect x="128" y="272" width="4" height="30" rx="2"/>
    <rect x="136" y="277" width="4" height="20" rx="2"/>
    <rect x="144" y="268" width="4" height="38" rx="2"/>
    <rect x="152" y="275" width="4" height="24" rx="2"/>
    <rect x="160" y="270" width="4" height="34" rx="2"/>
    <rect x="168" y="278" width="4" height="18" rx="2"/>
    <rect x="176" y="273" width="4" height="28" rx="2"/>
    <rect x="184" y="282" width="4" height="10" rx="2"/>
    <rect x="192" y="268" width="4" height="38" rx="2"/>
  </g>
  <g fill="#9CA3AF" opacity="0.4">
    <rect x="200" y="280" width="4" height="15" rx="2"/>
    <rect x="208" y="272" width="4" height="30" rx="2"/>
    <rect x="216" y="277" width="4" height="20" rx="2"/>
    <rect x="224" y="268" width="4" height="38" rx="2"/>
    <rect x="232" y="275" width="4" height="24" rx="2"/>
    <rect x="240" y="270" width="4" height="34" rx="2"/>
    <rect x="248" y="278" width="4" height="18" rx="2"/>
    <rect x="256" y="273" width="4" height="28" rx="2"/>
    <rect x="264" y="282" width="4" height="10" rx="2"/>
    <rect x="272" y="268" width="4" height="38" rx="2"/>
    <rect x="280" y="280" width="4" height="15" rx="2"/>
    <rect x="288" y="272" width="4" height="30" rx="2"/>
    <rect x="296" y="277" width="4" height="20" rx="2"/>
    <rect x="304" y="268" width="4" height="38" rx="2"/>
    <rect x="312" y="275" width="4" height="24" rx="2"/>
    <rect x="320" y="270" width="4" height="34" rx="2"/>
    <rect x="328" y="278" width="4" height="18" rx="2"/>
    <rect x="336" y="273" width="4" height="28" rx="2"/>
    <rect x="344" y="282" width="4" height="10" rx="2"/>
    <rect x="352" y="268" width="4" height="38" rx="2"/>
    <rect x="360" y="280" width="4" height="15" rx="2"/>
    <rect x="368" y="272" width="4" height="30" rx="2"/>
    <rect x="376" y="277" width="4" height="20" rx="2"/>
    <rect x="384" y="268" width="4" height="38" rx="2"/>
    <rect x="392" y="275" width="4" height="24" rx="2"/>
    <rect x="400" y="270" width="4" height="34" rx="2"/>
    <rect x="408" y="278" width="4" height="18" rx="2"/>
    <rect x="416" y="273" width="4" height="28" rx="2"/>
    <rect x="424" y="282" width="4" height="10" rx="2"/>
    <rect x="432" y="268" width="4" height="38" rx="2"/>
    <rect x="440" y="280" width="4" height="15" rx="2"/>
    <rect x="448" y="272" width="4" height="30" rx="2"/>
    <rect x="456" y="277" width="4" height="20" rx="2"/>
    <rect x="464" y="268" width="4" height="38" rx="2"/>
    <rect x="472" y="275" width="4" height="24" rx="2"/>
    <rect x="480" y="270" width="4" height="34" rx="2"/>
    <rect x="488" y="278" width="4" height="18" rx="2"/>
    <rect x="496" y="273" width="4" height="28" rx="2"/>
    <rect x="504" y="282" width="4" height="10" rx="2"/>
    <rect x="512" y="268" width="4" height="38" rx="2"/>
    <rect x="520" y="280" width="4" height="15" rx="2"/>
    <rect x="528" y="272" width="4" height="30" rx="2"/>
    <rect x="536" y="277" width="4" height="20" rx="2"/>
    <rect x="544" y="268" width="4" height="38" rx="2"/>
    <rect x="552" y="275" width="4" height="24" rx="2"/>
    <rect x="560" y="270" width="4" height="34" rx="2"/>
    <rect x="568" y="278" width="4" height="18" rx="2"/>
    <rect x="576" y="273" width="4" height="28" rx="2"/>
    <rect x="584" y="282" width="4" height="10" rx="2"/>
    <rect x="592" y="268" width="4" height="38" rx="2"/>
    <rect x="600" y="280" width="4" height="15" rx="2"/>
    <rect x="608" y="272" width="4" height="30" rx="2"/>
    <rect x="616" y="277" width="4" height="20" rx="2"/>
    <rect x="624" y="268" width="4" height="38" rx="2"/>
    <rect x="632" y="275" width="4" height="24" rx="2"/>
    <rect x="640" y="270" width="4" height="34" rx="2"/>
    <rect x="648" y="278" width="4" height="18" rx="2"/>
    <rect x="656" y="273" width="4" height="28" rx="2"/>
    <rect x="664" y="282" width="4" height="10" rx="2"/>
    <rect x="672" y="268" width="4" height="38" rx="2"/>
    <rect x="680" y="275" width="4" height="24" rx="2"/>
    <rect x="688" y="270" width="4" height="34" rx="2"/>
    <rect x="696" y="278" width="4" height="18" rx="2"/>
  </g>
  <!-- Playhead -->
  <line x1="195" y1="263" x2="195" y2="315" stroke="#5E5CE6" stroke-width="2"/>
  <circle cx="195" cy="263" r="5" fill="#5E5CE6"/>
  <!-- Play controls -->
  <text x="90" y="313" font-size="9" fill="#9CA3AF">02:15</text>
  <circle cx="400" cy="290" r="0"/>
  <text x="700" y="313" font-size="9" fill="#9CA3AF">18:42</text>
  <!-- Download button -->
  <rect x="50" y="340" width="700" height="36" fill="#5E5CE6" rx="8"/>
  <text x="400" y="362" text-anchor="middle" font-size="12" fill="white" font-weight="700">⬇️ 오디오 다운로드 (MP3)</text>
</svg>
